<svg xmlns="http://www.w3.org/2000/svg" viewBox="0 0 750 1050" width="750" height="1050" role="img" aria-labelledby="title desc">
<title id="title">Personal Attack card</title>
<desc id="desc">Attack Pack expansion card.</desc>

  <defs>
    <linearGradient id="bg-gradient" gradientTransform="rotate(255.95)">
      <stop offset="0%" stop-color="#4A0080" />
      <stop offset="100%" stop-color="#E040FB" />
    </linearGradient>
    <radialGradient id="flare-gradient" cx="50%" cy="45%" r="65%">
      <stop offset="0.00%" stop-color="#E040FB" stop-opacity="0.90" /><stop offset="20.00%" stop-color="#E040FB" stop-opacity="0.75" /><stop offset="40.00%" stop-color="#E040FB" stop-opacity="0.60" /><stop offset="60.00%" stop-color="#E040FB" stop-opacity="0.14" /><stop offset="80.00%" stop-color="#E040FB" stop-opacity="0.08" /><stop offset="100.00%" stop-color="#E040FB" stop-opacity="0.05" />
    </radialGradient>
  </defs>
  <rect width="100%" height="100%" fill="url(#bg-gradient)" />
  <circle cx="375" cy="441" r="345" fill="url(#flare-gradient)" />
  
  <!-- Cat silhouette with claws out -->
  <g transform="translate(375, 500)">
    <ellipse cx="0" cy="140" rx="90" ry="220" fill="#4A0080" />
    <circle cx="0" cy="0" r="80" fill="#4A0080" />
    <path d="M -48 -16 L -88 -104 L -16 -64 Z" fill="#4A0080" />
    <path d="M 48 -16 L 88 -104 L 16 -64 Z" fill="#4A0080" />
    <!-- Angry eyes -->
    <ellipse cx="-36" cy="-8" rx="14" ry="10" fill="#E040FB" />
    <ellipse cx="36" cy="-8" rx="14" ry="10" fill="#E040FB" />
    <!-- Fangs -->
    <path d="M -22 24 Q 0 32 22 24" stroke="#E040FB" stroke-width="6" fill="none" stroke-linecap="round" />
    <!-- Claws -->
    <path d="M -130 200 L -150 260 M -115 215 L -135 275 M -100 230 L -120 290" stroke="#E040FB" stroke-width="8" stroke-linecap="round" />
    <path d="M 130 200 L 150 260 M 115 215 L 135 275 M 100 230 L 120 290" stroke="#E040FB" stroke-width="8" stroke-linecap="round" />
  </g>
</svg>
