<svg xmlns="http://www.w3.org/2000/svg" viewBox="0 0 750 1050" width="750" height="1050" role="img" aria-labelledby="title desc">
<title id="title">Reverse card</title>
<desc id="desc">Attack Pack expansion card.</desc>

  <defs>
    <linearGradient id="bg-gradient" gradientTransform="rotate(255.95)">
      <stop offset="0%" stop-color="#004D40" />
      <stop offset="100%" stop-color="#64FFDA" />
    </linearGradient>
    <radialGradient id="flare-gradient" cx="50%" cy="45%" r="65%">
      <stop offset="0.00%" stop-color="#64FFDA" stop-opacity="0.90" /><stop offset="20.00%" stop-color="#64FFDA" stop-opacity="0.75" /><stop offset="40.00%" stop-color="#64FFDA" stop-opacity="0.60" /><stop offset="60.00%" stop-color="#64FFDA" stop-opacity="0.14" /><stop offset="80.00%" stop-color="#64FFDA" stop-opacity="0.08" /><stop offset="100.00%" stop-color="#64FFDA" stop-opacity="0.05" />
    </radialGradient>
  </defs>
  <rect width="100%" height="100%" fill="url(#bg-gradient)" />
  <circle cx="375" cy="441" r="345" fill="url(#flare-gradient)" />
  
  <!-- Circular arrows -->
  <g transform="translate(375, 350)" stroke="#004D40" stroke-width="20" fill="none" stroke-linecap="round">
    <path d="M 0 -120 A 120 120 0 0 1 104 60" />
    <path d="M 104 60 L 130 30 M 104 60 L 75 35" />
    <path d="M 0 120 A 120 120 0 0 1 -104 -60" />
    <path d="M -104 -60 L -130 -30 M -104 -60 L -75 -35" />
  </g>
  
  <!-- Cat silhouette in center -->
  <g transform="translate(375, 550)">
    <ellipse cx="0" cy="100" rx="60" ry="150" fill="#004D40" />
    <circle cx="0" cy="0" r="55" fill="#004D40" />
    <path d="M -33 -11 L -60 -73 L -11 -44 Z" fill="#004D40" />
    <path d="M 33 -11 L 60 -73 L 11 -44 Z" fill="#004D40" />
    <!-- Mischievous eyes -->
    <circle cx="-25" cy="-5" r="9" fill="#64FFDA" />
    <circle cx="25" cy="-5" r="9" fill="#64FFDA" />
    <path d="M -15 16 Q 0 22 15 16" stroke="#64FFDA" stroke-width="5" fill="none" stroke-linecap="round" />
  </g>
</svg>
